<?xml version="1.0" encoding="UTF-8"?>
<svg xmlns="http://www.w3.org/2000/svg" id="Ebene_1" data-name="Ebene 1" viewBox="0 0 168 104">
  <defs>
    <style>.cls-1{fill:red;}.cls-2{fill:#fc0;}</style>
  </defs>
  <g id="Name">
    <path d="M63.63,18.22a3.13,3.13,0,0,1-.14,1,2.32,2.32,0,0,1-.37.7,1.92,1.92,0,0,1-.55.48,2.66,2.66,0,0,1-.65.28v0a2.12,2.12,0,0,1,.77.29,2.47,2.47,0,0,1,.63.53,2.71,2.71,0,0,1,.42.75,2.67,2.67,0,0,1,.16,1,3,3,0,0,1-.21,1.14,2.39,2.39,0,0,1-.66.9,3.23,3.23,0,0,1-1.14.59,5.49,5.49,0,0,1-1.62.21H58.12V15.54h2a6,6,0,0,1,1.58.19,3,3,0,0,1,1.09.54,2.06,2.06,0,0,1,.62.85A3.17,3.17,0,0,1,63.63,18.22Zm-1.34.05a1.56,1.56,0,0,0-.52-1.21,2.36,2.36,0,0,0-1.62-.47h-.7v3.62h.68a2.23,2.23,0,0,0,1.61-.52A1.84,1.84,0,0,0,62.29,18.27Zm.2,4.83a1.72,1.72,0,0,0-.56-1.35,2.31,2.31,0,0,0-1.59-.49h-.89v3.68h.82A2.51,2.51,0,0,0,62,24.47,1.71,1.71,0,0,0,62.49,23.1ZM70.63,26H69.51v-.82h0a1.76,1.76,0,0,1-.2.27,1.88,1.88,0,0,1-.39.33,2.46,2.46,0,0,1-1.31.41,2.33,2.33,0,0,1-.87-.15,1.71,1.71,0,0,1-.67-.46,2.15,2.15,0,0,1-.41-.83,4.53,4.53,0,0,1-.15-1.26V18.74h1.23v4.69a2.16,2.16,0,0,0,.3,1.3,1.08,1.08,0,0,0,.92.39,1.5,1.5,0,0,0,.9-.27,2.94,2.94,0,0,0,.57-.52V18.74h1.23Zm5.87,0V21.34A2.17,2.17,0,0,0,76.19,20a1.12,1.12,0,0,0-1-.41,1.43,1.43,0,0,0-.91.28,3.07,3.07,0,0,0-.58.53V26H72.52V18.74h1.12v.82h0a1.76,1.76,0,0,1,.2-.27,1.68,1.68,0,0,1,.4-.33,2.52,2.52,0,0,1,.57-.28,2.06,2.06,0,0,1,.76-.13,2.52,2.52,0,0,1,.89.15,1.61,1.61,0,0,1,.67.46,2.31,2.31,0,0,1,.42.83,4.5,4.5,0,0,1,.15,1.25V26Zm2.74-3.54a5,5,0,0,1,.29-1.85,3.36,3.36,0,0,1,.74-1.2,2.61,2.61,0,0,1,1-.65,3.63,3.63,0,0,1,1.76-.14,2.35,2.35,0,0,1,.42.13V15.29l1.24-.14V26H83.6v-.77h0a2.24,2.24,0,0,1-.17.25,1.77,1.77,0,0,1-.86.59,2.15,2.15,0,0,1-.75.12,2.37,2.37,0,0,1-1-.21,2.09,2.09,0,0,1-.81-.65,3.39,3.39,0,0,1-.56-1.16,6.47,6.47,0,0,1-.2-1.71Zm2.89,2.63a1.37,1.37,0,0,0,.51-.08,1.48,1.48,0,0,0,.4-.19,1.64,1.64,0,0,0,.28-.23,1.3,1.3,0,0,0,.17-.21v-4.5a2.69,2.69,0,0,0-.38-.19,1.82,1.82,0,0,0-.56-.07,2.36,2.36,0,0,0-.8.14,1.64,1.64,0,0,0-.64.48,2.53,2.53,0,0,0-.44.87,4.83,4.83,0,0,0-.16,1.31,5.48,5.48,0,0,0,.13,1.26,2.56,2.56,0,0,0,.36.83,1.43,1.43,0,0,0,.52.44,1.27,1.27,0,0,0,.61.14Zm9.16-3.92q0,.47,0,.81t-.06.6H87.48a3.23,3.23,0,0,0,.55,1.9,1.71,1.71,0,0,0,1.42.61A1.73,1.73,0,0,0,90,25a2.34,2.34,0,0,0,.45-.18,2.22,2.22,0,0,0,.32-.21l.19-.17.45.87-.22.22a2.42,2.42,0,0,1-.41.29,3.56,3.56,0,0,1-.64.25,3.46,3.46,0,0,1-.9.11A3.26,3.26,0,0,1,88,26a2.33,2.33,0,0,1-.94-.71,3.32,3.32,0,0,1-.6-1.22,6.51,6.51,0,0,1-.21-1.77,5.66,5.66,0,0,1,.22-1.68,3.18,3.18,0,0,1,.6-1.16,2.41,2.41,0,0,1,.88-.68,2.74,2.74,0,0,1,1.08-.22,2.07,2.07,0,0,1,1.64.67,2.91,2.91,0,0,1,.59,2ZM89,19.56a1.26,1.26,0,0,0-1,.54,3.06,3.06,0,0,0-.45,1.59h2.66c0-.06,0-.13,0-.22s0-.2,0-.32A1.89,1.89,0,0,0,89.86,20,1,1,0,0,0,89,19.56Zm7.1.65a3.54,3.54,0,0,0-.44-.37,1.35,1.35,0,0,0-.84-.24,1.09,1.09,0,0,0-.74.23.72.72,0,0,0-.26.55,1,1,0,0,0,.24.67,2.9,2.9,0,0,0,.72.57l.45.28a4.28,4.28,0,0,1,1.17,1,2.14,2.14,0,0,1-.17,2.77,2.35,2.35,0,0,1-1.73.6,2.94,2.94,0,0,1-.77-.1,3.67,3.67,0,0,1-.59-.21,2.23,2.23,0,0,1-.41-.26,2.46,2.46,0,0,1-.28-.27l.59-1,.22.21a1.65,1.65,0,0,0,.32.23A1.55,1.55,0,0,0,94,25a1.44,1.44,0,0,0,.53.08,1.26,1.26,0,0,0,.83-.24.73.73,0,0,0,.29-.6,1.42,1.42,0,0,0-.06-.44,1.25,1.25,0,0,0-.21-.35,1.87,1.87,0,0,0-.33-.28l-.46-.31-.46-.29A4.54,4.54,0,0,1,93,21.69a2,2,0,0,1-.39-1.25,1.83,1.83,0,0,1,.16-.75,1.89,1.89,0,0,1,.45-.6,2.16,2.16,0,0,1,.68-.39,2.27,2.27,0,0,1,.83-.15,2.65,2.65,0,0,1,.73.09,1.89,1.89,0,0,1,.52.21,2.37,2.37,0,0,1,.37.26l.23.22-.53.88Zm6,5.82V21.34a2.52,2.52,0,0,0-.25-1.3,1,1,0,0,0-.84-.39,1.81,1.81,0,0,0-.54.07,2.76,2.76,0,0,0-.42.19,1.65,1.65,0,0,0-.32.26l-.23.24V26H98.25V18.74h1.13v.82h0a3.06,3.06,0,0,1,.23-.3,1.56,1.56,0,0,1,.38-.33,2,2,0,0,1,.53-.27,2.06,2.06,0,0,1,.68-.11,1.85,1.85,0,0,1,1.77,1,2.47,2.47,0,0,1,.28-.33,2.83,2.83,0,0,1,.43-.32,2.12,2.12,0,0,1,.55-.23,2,2,0,0,1,.67-.1c1.48,0,2.22.87,2.22,2.59V26h-1.24V21.34a2.13,2.13,0,0,0-.31-1.3,1.17,1.17,0,0,0-.95-.39,1.41,1.41,0,0,0-.86.25,4.54,4.54,0,0,0-.54.48,3.48,3.48,0,0,1,0,.36c0,.12,0,.26,0,.4V26Zm8.14,0H109V18.74h1.24ZM109.61,17a.79.79,0,0,1-.61-.24.9.9,0,0,1-.23-.64.88.88,0,0,1,.23-.62.79.79,0,0,1,.61-.24.78.78,0,0,1,.59.24.88.88,0,0,1,.23.62.9.9,0,0,1-.23.64A.78.78,0,0,1,109.61,17ZM116.08,26V21.34a2.17,2.17,0,0,0-.31-1.33,1.12,1.12,0,0,0-1-.41,1.43,1.43,0,0,0-.91.28,3.42,3.42,0,0,0-.58.53V26H112.1V18.74h1.13v.82h0a1.54,1.54,0,0,1,.19-.27,1.68,1.68,0,0,1,.4-.33,2.41,2.41,0,0,1,.58-.28,2,2,0,0,1,.76-.13,2.5,2.5,0,0,1,.88.15,1.61,1.61,0,0,1,.67.46,2.31,2.31,0,0,1,.42.83,4.5,4.5,0,0,1,.15,1.25V26Zm4.3,0h-1.23V18.74h1.23Zm-.6-9.06a.79.79,0,0,1-.61-.24.9.9,0,0,1-.23-.64.88.88,0,0,1,.23-.62.79.79,0,0,1,.61-.24.78.78,0,0,1,.59.24.88.88,0,0,1,.23.62.9.9,0,0,1-.23.64A.78.78,0,0,1,119.78,17Zm5.64,3.24a3.54,3.54,0,0,0-.44-.37,1.39,1.39,0,0,0-.84-.24,1.14,1.14,0,0,0-.75.23.71.71,0,0,0-.25.55.94.94,0,0,0,.23.67,3.33,3.33,0,0,0,.72.57l.46.28a4.28,4.28,0,0,1,1.17,1,2,2,0,0,1,.43,1.31,2,2,0,0,1-.6,1.46,2.35,2.35,0,0,1-1.73.6,3.08,3.08,0,0,1-.78-.1,3.54,3.54,0,0,1-.58-.21,2,2,0,0,1-.42-.26l-.27-.27.59-1,.22.21a1.92,1.92,0,0,0,.31.23,1.72,1.72,0,0,0,.41.19,1.5,1.5,0,0,0,.54.08,1.26,1.26,0,0,0,.83-.24.76.76,0,0,0,.29-.6,1.16,1.16,0,0,0-.07-.44,1,1,0,0,0-.2-.35,2,2,0,0,0-.34-.28c-.13-.1-.28-.2-.45-.31l-.46-.29a4.34,4.34,0,0,1-1.07-.92,2,2,0,0,1-.39-1.25,1.68,1.68,0,0,1,.16-.75,1.89,1.89,0,0,1,.45-.6,2.16,2.16,0,0,1,.68-.39,2.21,2.21,0,0,1,.82-.15,2.55,2.55,0,0,1,.73.09,1.83,1.83,0,0,1,.53.21,2.24,2.24,0,0,1,.36.26l.24.22-.53.88Zm5.29-.47h-1.6v4a2,2,0,0,0,.2,1.06.75.75,0,0,0,.67.28,1.13,1.13,0,0,0,.47-.08,1.69,1.69,0,0,0,.29-.13l.16,1a2.43,2.43,0,0,1-.36.19,2,2,0,0,1-.78.13,1.8,1.8,0,0,1-1.41-.53,2.61,2.61,0,0,1-.47-1.74V19.74H127v-.82l.88-.18.14-2h1.09v2h1.75Zm6,1.46q0,.47,0,.81t-.06.6h-3.73a3.22,3.22,0,0,0,.56,1.9,1.71,1.71,0,0,0,1.42.61,1.77,1.77,0,0,0,.58-.08,2.34,2.34,0,0,0,.45-.18,3,3,0,0,0,.32-.21l.19-.17.45.87-.23.22a1.81,1.81,0,0,1-.41.29,3.05,3.05,0,0,1-.64.25,3.33,3.33,0,0,1-.89.11,3.26,3.26,0,0,1-1.24-.23,2.33,2.33,0,0,1-.94-.71,3.32,3.32,0,0,1-.6-1.22,6.11,6.11,0,0,1-.22-1.77,6,6,0,0,1,.22-1.68,3.52,3.52,0,0,1,.6-1.16,2.52,2.52,0,0,1,.89-.68,2.74,2.74,0,0,1,1.08-.22,2.08,2.08,0,0,1,1.64.67,2.91,2.91,0,0,1,.59,2Zm-2.31-1.64a1.23,1.23,0,0,0-1.05.54,3.06,3.06,0,0,0-.46,1.59h2.66c0-.06,0-.13,0-.22v-.32a2,2,0,0,0-.3-1.17A1,1,0,0,0,134.37,19.56Zm7.16.26a.88.88,0,0,0-.2-.08,1.47,1.47,0,0,0-.41,0,1.24,1.24,0,0,0-.9.32,1.75,1.75,0,0,0-.47.67V26h-1.23V18.74h1.13v1h0a2.17,2.17,0,0,1,.19-.41,1.85,1.85,0,0,1,.31-.37,1.39,1.39,0,0,1,.43-.25,1.8,1.8,0,0,1,.6-.09,1.61,1.61,0,0,1,.42,0l.25.07-.15,1.1ZM144,26h-1.24V18.74H144ZM143.37,17a.79.79,0,0,1-.61-.24.9.9,0,0,1-.23-.64.88.88,0,0,1,.23-.62.79.79,0,0,1,.61-.24.78.78,0,0,1,.59.24.88.88,0,0,1,.23.62.9.9,0,0,1-.23.64A.78.78,0,0,1,143.37,17ZM151,26h-1.13v-.82h0a1.54,1.54,0,0,1-.19.27,2.6,2.6,0,0,1-.39.33,2.52,2.52,0,0,1-.57.28,2.22,2.22,0,0,1-.75.13,2.41,2.41,0,0,1-.87-.15,1.61,1.61,0,0,1-.66-.46,2.16,2.16,0,0,1-.42-.83,4.53,4.53,0,0,1-.15-1.26V18.74h1.24v4.69a2.25,2.25,0,0,0,.29,1.3,1.09,1.09,0,0,0,.92.39,1.46,1.46,0,0,0,.9-.27,3.36,3.36,0,0,0,.58-.52V18.74H151V26Zm5.71,0V21.34a2.41,2.41,0,0,0-.26-1.3.92.92,0,0,0-.83-.39,1.81,1.81,0,0,0-.54.07,2.76,2.76,0,0,0-.42.19,1.65,1.65,0,0,0-.32.26l-.23.24V26h-1.23V18.74H154v.82h0a2,2,0,0,1,.23-.3,1.56,1.56,0,0,1,.38-.33,2,2,0,0,1,.53-.27,2.06,2.06,0,0,1,.68-.11,1.85,1.85,0,0,1,1.77,1,2.47,2.47,0,0,1,.28-.33,2.83,2.83,0,0,1,.43-.32,2.12,2.12,0,0,1,.55-.23,2,2,0,0,1,.67-.1c1.48,0,2.21.87,2.21,2.59V26h-1.23V21.34a2.05,2.05,0,0,0-.32-1.3,1.13,1.13,0,0,0-.94-.39,1.41,1.41,0,0,0-.86.25,4.54,4.54,0,0,0-.54.48,3.48,3.48,0,0,1,.05.36c0,.12,0,.26,0,.4V26Zm-95.74,9H59.45v6.29H58.22V35.07h-.89v-.82l.89-.17V32.62a2.88,2.88,0,0,1,.16-1,2.14,2.14,0,0,1,.44-.7,1.7,1.7,0,0,1,.64-.39,2.5,2.5,0,0,1,.78-.12,1.93,1.93,0,0,1,.67.1,2.08,2.08,0,0,1,.36.17l-.26,1a1,1,0,0,0-.26-.13,1,1,0,0,0-.41-.07.81.81,0,0,0-.66.27,1.6,1.6,0,0,0-.23,1v1.3h1.64Zm6.32,6.29H66.14v-.82h0a1.54,1.54,0,0,1-.19.27,2.24,2.24,0,0,1-.39.33,2.52,2.52,0,0,1-.57.28,2.19,2.19,0,0,1-.75.12,2.41,2.41,0,0,1-.87-.14,1.61,1.61,0,0,1-.66-.46,2.31,2.31,0,0,1-.42-.83,5,5,0,0,1-.14-1.26V34.06h1.23v4.7a2.25,2.25,0,0,0,.29,1.3,1.09,1.09,0,0,0,.92.39,1.46,1.46,0,0,0,.9-.27,3,3,0,0,0,.58-.52v-5.6h1.23Zm-3-9.39a.77.77,0,0,1-.22.56.74.74,0,0,1-1,0,.76.76,0,0,1-.21-.56A.79.79,0,0,1,63,31.4a.74.74,0,0,1,1,0A.79.79,0,0,1,64.24,32Zm2.34,0a.73.73,0,0,1-.22.56.74.74,0,0,1-1,0,.76.76,0,0,1-.21-.56.79.79,0,0,1,.21-.57.74.74,0,0,1,1,0A.75.75,0,0,1,66.58,32Zm5.77,3.17-.2-.07a1.42,1.42,0,0,0-.41,0,1.29,1.29,0,0,0-.9.31,1.82,1.82,0,0,0-.46.68v5.35H69.14v-7.3h1.13v1h0a2.67,2.67,0,0,1,.2-.42,1.69,1.69,0,0,1,.3-.36,1.31,1.31,0,0,1,.43-.25,1.82,1.82,0,0,1,.61-.09,1.53,1.53,0,0,1,.41,0l.25.08Zm9.85-1.59a3.14,3.14,0,0,1-.13,1,2.47,2.47,0,0,1-.38.7,1.89,1.89,0,0,1-.54.48,2.8,2.8,0,0,1-.65.27v0a2.38,2.38,0,0,1,.77.28,2.46,2.46,0,0,1,.62.54,2.5,2.5,0,0,1,.43.75,2.87,2.87,0,0,1,.16,1,3,3,0,0,1-.22,1.14,2.39,2.39,0,0,1-.66.9,3.18,3.18,0,0,1-1.13.59,5.61,5.61,0,0,1-1.63.21H76.7V30.87h2a6.07,6.07,0,0,1,1.59.19,3.18,3.18,0,0,1,1.09.54,2,2,0,0,1,.61.85A3,3,0,0,1,82.2,33.55Zm-1.34,0a1.58,1.58,0,0,0-.51-1.2,2.4,2.4,0,0,0-1.63-.47H78v3.62h.69A2.24,2.24,0,0,0,80.32,35,1.88,1.88,0,0,0,80.86,33.59Zm.2,4.84a1.71,1.71,0,0,0-.55-1.35,2.31,2.31,0,0,0-1.59-.49H78v3.68h.82a2.54,2.54,0,0,0,1.7-.47A1.72,1.72,0,0,0,81.06,38.43Zm4.27,2.93H84.1v-7.3h1.23Zm-.6-9.06a.79.79,0,0,1-.61-.24.91.91,0,0,1-.23-.64.88.88,0,0,1,.23-.62.76.76,0,0,1,.61-.25.75.75,0,0,1,.59.25.88.88,0,0,1,.23.62.91.91,0,0,1-.23.64A.78.78,0,0,1,84.73,32.3Zm3.7,7.36a1.23,1.23,0,0,0,.13.64.53.53,0,0,0,.45.18,1.09,1.09,0,0,0,.28,0l.18-.06.1.91-.33.12a2.25,2.25,0,0,1-.65.08,1.39,1.39,0,0,1-1-.38,1.94,1.94,0,0,1-.38-1.36V30.61l1.23-.13v9.18Zm1.92-1.84A5.26,5.26,0,0,1,90.64,36a3.55,3.55,0,0,1,.74-1.2,2.58,2.58,0,0,1,1-.64A3.63,3.63,0,0,1,94.18,34a2.79,2.79,0,0,1,.43.13v-3.5l1.23-.13V41.36H94.71v-.77h0a1.37,1.37,0,0,1-.17.25,2,2,0,0,1-.33.32,2.38,2.38,0,0,1-.53.27,2.15,2.15,0,0,1-.75.11,2.53,2.53,0,0,1-1-.2,2.12,2.12,0,0,1-.81-.66,3.43,3.43,0,0,1-.56-1.15,6.47,6.47,0,0,1-.2-1.71Zm2.89,2.63a1.6,1.6,0,0,0,.51-.08,1.35,1.35,0,0,0,.4-.19,1.64,1.64,0,0,0,.28-.23,1.59,1.59,0,0,0,.18-.22V35.24a1.52,1.52,0,0,0-1-.26,2.05,2.05,0,0,0-.79.14,1.6,1.6,0,0,0-.65.48,2.36,2.36,0,0,0-.43.87,4.44,4.44,0,0,0-.16,1.3A5.06,5.06,0,0,0,91.76,39a2.23,2.23,0,0,0,.35.82,1.37,1.37,0,0,0,.52.45A1.4,1.4,0,0,0,93.24,40.45Zm9.59.91H101.7v-.82h0a1.54,1.54,0,0,1-.19.27,2.69,2.69,0,0,1-.39.33,2.52,2.52,0,0,1-.57.28,2.19,2.19,0,0,1-.75.12,2.41,2.41,0,0,1-.87-.14,1.61,1.61,0,0,1-.66-.46,2.31,2.31,0,0,1-.42-.83,4.56,4.56,0,0,1-.14-1.26V34.06h1.23v4.7a2.25,2.25,0,0,0,.29,1.3,1.09,1.09,0,0,0,.92.39,1.46,1.46,0,0,0,.9-.27,3,3,0,0,0,.58-.52v-5.6h1.23Zm5.87,0v-4.7a2.2,2.2,0,0,0-.32-1.33,1.13,1.13,0,0,0-.95-.4,1.51,1.51,0,0,0-.91.27,3.87,3.87,0,0,0-.58.54v5.62h-1.23v-7.3h1.13v.83h0a1.38,1.38,0,0,1,.2-.27,1.62,1.62,0,0,1,.39-.33A3.13,3.13,0,0,1,107,34a2.24,2.24,0,0,1,.76-.12,2.46,2.46,0,0,1,.88.15,1.55,1.55,0,0,1,.67.46,2.4,2.4,0,0,1,.43.83,4.5,4.5,0,0,1,.15,1.25v4.79ZM117,35h-.92a2.43,2.43,0,0,1,.35,1.31,2.68,2.68,0,0,1-.19,1,2,2,0,0,1-.53.78,2.27,2.27,0,0,1-.8.49,3,3,0,0,1-1,.17h-.2l-.2,0a1.45,1.45,0,0,0-.38.25.53.53,0,0,0-.19.44.48.48,0,0,0,.17.37,1,1,0,0,0,.57.14h.93a4.21,4.21,0,0,1,1,.11,2,2,0,0,1,.76.34,1.64,1.64,0,0,1,.51.6,2,2,0,0,1,.19.88,2.39,2.39,0,0,1-.25,1.08,2.49,2.49,0,0,1-.71.84,3.84,3.84,0,0,1-1.11.55,5.11,5.11,0,0,1-1.46.19,2.72,2.72,0,0,1-1.78-.51,1.81,1.81,0,0,1-.61-1.46,1.55,1.55,0,0,1,.15-.71,2.12,2.12,0,0,1,.34-.52A2.5,2.5,0,0,1,112,41l.33-.2v0a1.17,1.17,0,0,1-.47-1,1.12,1.12,0,0,1,.11-.5,1.42,1.42,0,0,1,.55-.57l.22-.12v0a2,2,0,0,1-.91-.81,3.06,3.06,0,0,1-.14-2.49,2.16,2.16,0,0,1,.53-.77A2.49,2.49,0,0,1,113,34a3,3,0,0,1,1-.15,2.61,2.61,0,0,1,1,.18h2.22Zm-3.39,6.11a3.25,3.25,0,0,1-.57,0,1.51,1.51,0,0,0-.26.18,1.24,1.24,0,0,0-.41.62,1.33,1.33,0,0,0-.07.47q0,1.17,1.29,1.17a2.55,2.55,0,0,0,1.64-.43,1.25,1.25,0,0,0,.53-1,.85.85,0,0,0-.33-.76,1.66,1.66,0,0,0-.9-.22Zm1.62-4.8a1.46,1.46,0,0,0-.37-1.13,1.28,1.28,0,0,0-.87-.33,1.37,1.37,0,0,0-.92.33,1.47,1.47,0,0,0-.38,1.13,1.43,1.43,0,0,0,.38,1.12,1.35,1.35,0,0,0,1.79,0A1.42,1.42,0,0,0,115.23,36.33ZM63,56.69H61.85v-.82h0a1.39,1.39,0,0,1-.2.26,1.9,1.9,0,0,1-.39.34,2.52,2.52,0,0,1-.57.28,2.17,2.17,0,0,1-.74.12,2.66,2.66,0,0,1-.88-.14,1.68,1.68,0,0,1-.66-.47,2.08,2.08,0,0,1-.41-.83,4.4,4.4,0,0,1-.15-1.25V49.39h1.23v4.7a2.16,2.16,0,0,0,.3,1.3,1.08,1.08,0,0,0,.92.39,1.5,1.5,0,0,0,.9-.27,3.3,3.3,0,0,0,.57-.52v-5.6H63Zm5.87,0V52a2.19,2.19,0,0,0-.31-1.33,1.12,1.12,0,0,0-1-.4,1.47,1.47,0,0,0-.91.27,3.44,3.44,0,0,0-.58.53v5.63H64.86v-7.3H66v.82h0a1.39,1.39,0,0,1,.2-.26,1.74,1.74,0,0,1,.4-.34,3,3,0,0,1,.57-.28,2.29,2.29,0,0,1,.76-.12,2.77,2.77,0,0,1,.89.14,1.63,1.63,0,0,1,.66.47,2.1,2.1,0,0,1,.43.83,4.45,4.45,0,0,1,.15,1.25v4.79Zm2.74-3.54a5,5,0,0,1,.29-1.86,3.55,3.55,0,0,1,.74-1.2,2.55,2.55,0,0,1,1-.64,3.61,3.61,0,0,1,1.16-.19,2.78,2.78,0,0,1,.61.05,1.74,1.74,0,0,1,.42.13v-3.5l1.23-.13V56.69H75.94v-.78h0a1.58,1.58,0,0,1-.17.25,1.44,1.44,0,0,1-.33.32,2,2,0,0,1-.53.28,2.47,2.47,0,0,1-.75.11,2.53,2.53,0,0,1-1-.2,2.12,2.12,0,0,1-.81-.66,3.34,3.34,0,0,1-.56-1.15,6.47,6.47,0,0,1-.2-1.71Zm2.89,2.63A1.6,1.6,0,0,0,75,55.7a1.48,1.48,0,0,0,.4-.19,2.3,2.3,0,0,0,.28-.23l.17-.22v-4.5a1.91,1.91,0,0,0-.38-.18,1.79,1.79,0,0,0-.56-.08,2.15,2.15,0,0,0-.8.15,1.57,1.57,0,0,0-.64.48,2.4,2.4,0,0,0-.44.86,4.88,4.88,0,0,0-.16,1.31A5.58,5.58,0,0,0,73,54.37a2.5,2.5,0,0,0,.36.82,1.3,1.3,0,0,0,.52.45A1.4,1.4,0,0,0,74.47,55.78Zm8,.91V46.2h5.15l-.09,1H83.75v3.88H87.2v1H83.75v4.52ZM88.51,53a5.52,5.52,0,0,1,.24-1.73,3.4,3.4,0,0,1,.63-1.2,2.66,2.66,0,0,1,.93-.68,2.8,2.8,0,0,1,1.12-.22,2.76,2.76,0,0,1,1.12.22,2.39,2.39,0,0,1,.9.68,3.55,3.55,0,0,1,.6,1.2A5.87,5.87,0,0,1,94.27,53,5.67,5.67,0,0,1,94,54.79,3.2,3.2,0,0,1,93.41,56a2.43,2.43,0,0,1-.93.68,3.06,3.06,0,0,1-1.13.21,2.94,2.94,0,0,1-1.12-.21,2.2,2.2,0,0,1-.9-.68,3.53,3.53,0,0,1-.6-1.18A6,6,0,0,1,88.51,53ZM93,53a4.09,4.09,0,0,0-.42-2.12,1.34,1.34,0,0,0-1.19-.66,1.31,1.31,0,0,0-1.17.66A4.09,4.09,0,0,0,89.79,53a4,4,0,0,0,.42,2.1,1.37,1.37,0,0,0,1.19.64,1.34,1.34,0,0,0,1.18-.64A4,4,0,0,0,93,53Zm6-2.57-.2-.07a1.47,1.47,0,0,0-.41,0,1.23,1.23,0,0,0-.9.31,1.86,1.86,0,0,0-.47.68v5.35H95.82v-7.3H97v1h0a2.6,2.6,0,0,1,.19-.42,1.79,1.79,0,0,1,.31-.36,1.22,1.22,0,0,1,.43-.25,1.8,1.8,0,0,1,.6-.09,1.66,1.66,0,0,1,.42,0l.25.08Zm4.3.4a3.41,3.41,0,0,0-.44-.38,1.42,1.42,0,0,0-.84-.23,1.09,1.09,0,0,0-.74.23.7.7,0,0,0-.26.54,1,1,0,0,0,.24.68,2.9,2.9,0,0,0,.72.57l.45.27a4.68,4.68,0,0,1,1.17,1,2.15,2.15,0,0,1-.17,2.78,2.39,2.39,0,0,1-1.73.59,3,3,0,0,1-.77-.09,3.67,3.67,0,0,1-.59-.21,2.63,2.63,0,0,1-.69-.53l.6-1,.22.22a2.08,2.08,0,0,0,.31.23,1.72,1.72,0,0,0,.41.19,1.69,1.69,0,0,0,.53.08,1.26,1.26,0,0,0,.84-.25.74.74,0,0,0,.28-.59,1.53,1.53,0,0,0-.06-.45,1.2,1.2,0,0,0-.21-.34,1.9,1.9,0,0,0-.33-.29l-.46-.3-.46-.29a4.34,4.34,0,0,1-1.07-.93,1.91,1.91,0,0,1-.38-1.24,1.87,1.87,0,0,1,.15-.76,1.85,1.85,0,0,1,.45-.59,2.3,2.3,0,0,1,.68-.4,2.49,2.49,0,0,1,.83-.14,3.07,3.07,0,0,1,.73.08,2.09,2.09,0,0,1,.52.22,1.85,1.85,0,0,1,.37.26,2.49,2.49,0,0,1,.23.22l-.53.88Zm6.23-.06-.14-.14a1.8,1.8,0,0,0-.25-.18,1.58,1.58,0,0,0-.37-.16,1.43,1.43,0,0,0-.48-.07,2,2,0,0,0-.74.14,1.4,1.4,0,0,0-.59.47,2.38,2.38,0,0,0-.4.83,4.43,4.43,0,0,0-.14,1.23,5.86,5.86,0,0,0,.13,1.36,2.51,2.51,0,0,0,.35.87,1.31,1.31,0,0,0,.56.47,1.72,1.72,0,0,0,.72.15,1.58,1.58,0,0,0,.86-.2,2.74,2.74,0,0,0,.42-.32l.5.85a2.26,2.26,0,0,1-.22.22,1.83,1.83,0,0,1-.37.25,3,3,0,0,1-.56.21,3.38,3.38,0,0,1-.75.08,3,3,0,0,1-1.14-.2A2.22,2.22,0,0,1,106,56a3.26,3.26,0,0,1-.62-1.19,6.11,6.11,0,0,1-.23-1.8,5.13,5.13,0,0,1,.27-1.78,3.33,3.33,0,0,1,.72-1.18,2.59,2.59,0,0,1,1-.65,3,3,0,0,1,1.09-.21,3.11,3.11,0,0,1,.72.08,2.35,2.35,0,0,1,.53.19,1.25,1.25,0,0,1,.36.24l.24.22Zm5.79,5.88V52a2.19,2.19,0,0,0-.31-1.33,1.12,1.12,0,0,0-1-.4,1.49,1.49,0,0,0-.91.27,3.89,3.89,0,0,0-.58.53v5.63h-1.23V45.94l1.23-.13v4.33h0l.19-.25a1.9,1.9,0,0,1,.36-.3,2.66,2.66,0,0,1,.56-.27,2.44,2.44,0,0,1,.76-.11,2,2,0,0,1,1.52.62,3,3,0,0,1,.57,2.07v4.79Zm8.18,0h-1.12v-.82h0a1.39,1.39,0,0,1-.2.26,1.9,1.9,0,0,1-.39.34,3,3,0,0,1-.57.28,2.17,2.17,0,0,1-.74.12,2.66,2.66,0,0,1-.88-.14,1.55,1.55,0,0,1-.66-.47,2.23,2.23,0,0,1-.42-.83,4.84,4.84,0,0,1-.14-1.25V49.39h1.23v4.7a2.16,2.16,0,0,0,.3,1.3,1.07,1.07,0,0,0,.92.39,1.45,1.45,0,0,0,.89-.27,3.06,3.06,0,0,0,.58-.52v-5.6h1.23Zm5.87,0V52a2.19,2.19,0,0,0-.31-1.33,1.13,1.13,0,0,0-1-.4,1.47,1.47,0,0,0-.91.27,3.44,3.44,0,0,0-.58.53v5.63h-1.23v-7.3h1.12v.82h0a1.39,1.39,0,0,1,.2-.26,1.9,1.9,0,0,1,.39-.34,3.48,3.48,0,0,1,.58-.28,2.29,2.29,0,0,1,.76-.12,2.66,2.66,0,0,1,.88.14,1.6,1.6,0,0,1,.67.47,2.1,2.1,0,0,1,.43.83,4.45,4.45,0,0,1,.15,1.25v4.79Zm8.3-6.34h-.91a2.52,2.52,0,0,1,.35,1.31,2.87,2.87,0,0,1-.19,1,2.18,2.18,0,0,1-.54.78,2.24,2.24,0,0,1-.8.49,3,3,0,0,1-1,.17h-.19l-.2,0a1.49,1.49,0,0,0-.38.24.56.56,0,0,0-.2.44.49.49,0,0,0,.17.38,1,1,0,0,0,.57.14h.93a4.08,4.08,0,0,1,1,.11,2.15,2.15,0,0,1,.77.34,1.74,1.74,0,0,1,.51.6,2,2,0,0,1,.18.88,2.26,2.26,0,0,1-.25,1.08,2.57,2.57,0,0,1-.71.84,3.38,3.38,0,0,1-1.11.54,4.73,4.73,0,0,1-1.46.2,2.72,2.72,0,0,1-1.78-.51,1.81,1.81,0,0,1-.6-1.46,1.55,1.55,0,0,1,.14-.71,2.46,2.46,0,0,1,.34-.52,1.86,1.86,0,0,1,.41-.35l.32-.2v0a1.22,1.22,0,0,1-.47-1,1.12,1.12,0,0,1,.11-.5,1.45,1.45,0,0,1,.26-.35,1.71,1.71,0,0,1,.29-.22l.22-.12v0a2.06,2.06,0,0,1-.9-.81,2.64,2.64,0,0,1-.34-1.42,2.73,2.73,0,0,1,.19-1.07,2.18,2.18,0,0,1,1.32-1.23,3,3,0,0,1,1-.15,2.67,2.67,0,0,1,1,.18h2.22Zm-3.39,6.11a3.13,3.13,0,0,1-.56,0,2.11,2.11,0,0,0-.27.18,1.21,1.21,0,0,0-.24.26,1.63,1.63,0,0,0-.17.35,1.43,1.43,0,0,0-.07.48q0,1.17,1.29,1.17a2.6,2.6,0,0,0,1.65-.43,1.28,1.28,0,0,0,.53-1,.82.82,0,0,0-.34-.75,1.56,1.56,0,0,0-.89-.22Zm1.63-4.8a1.47,1.47,0,0,0-.38-1.13,1.28,1.28,0,0,0-.87-.33,1.32,1.32,0,0,0-.91.33,1.43,1.43,0,0,0-.38,1.13,1.41,1.41,0,0,0,.38,1.12,1.25,1.25,0,0,0,.88.34,1.28,1.28,0,0,0,.9-.34A1.44,1.44,0,0,0,135.94,51.66Z"></path>
  </g>
  <g id="Adler-und-Saeulenelement">
    <path d="M24.57,25.19a6.4,6.4,0,0,0,.06-.88c0-.17,0-.36,0-.58,2.54,0,4.78-1.87,4.78-4a3.77,3.77,0,0,0-1.1-2.36l.27-.06A4.26,4.26,0,0,1,30,20.26c0,2.53-2.53,4.88-5.42,4.93M22,16.38a1.79,1.79,0,0,0-.32-.76c0-.26.11-.51.53-.3-.22.23,0,.64,0,.64s.46-.22.36-.52c.68.16.19,1.08-.52.94m-.59,1.3a2.72,2.72,0,0,0-.53-1.06,1.48,1.48,0,0,0-1.1-.58,2.57,2.57,0,0,0-.86.21,2.42,2.42,0,0,1-.27-.75c0-.18.32-.37.92-.37,1.31,0,2.1.59,2.1,1.59a2.53,2.53,0,0,1-.26,1m3.38,17a.87.87,0,0,1,.32.06A18.13,18.13,0,0,0,27,37.78v0h0a13.61,13.61,0,0,1,2-.2h0a.32.32,0,0,1,.24.06.37.37,0,0,1,.08.26,1.44,1.44,0,0,1-.18.66,1.77,1.77,0,0,0-1.4-.43,2.76,2.76,0,0,0-.59.1H27.2l-.06,0,.4.4c.62.62,1.16,1.16,1.16,1.51a.89.89,0,0,1-.4.62,3.38,3.38,0,0,0-1.35-2l-.05,0V39c0,.15,0,.39,0,.64,0,1.24-.13,1.43-.56,1.43a.85.85,0,0,1-.23,0,2.13,2.13,0,0,0,.34-1.4v-.57a5.13,5.13,0,0,1,.05-.67v-.1h-.06a6.65,6.65,0,0,0-.87-.08,1.8,1.8,0,0,0-1.33.34,1.07,1.07,0,0,1-.4-.62c0-.26.16-.28.37-.28l.35,0a8.72,8.72,0,0,0,1.48.1h0l0-.05a10.17,10.17,0,0,0-1.69-2.56c.08-.3.16-.5.45-.5m-7.88,3.06,0,.05H17a8.72,8.72,0,0,0,1.48-.1l.34,0c.22,0,.38,0,.38.28a1.12,1.12,0,0,1-.4.62,1.82,1.82,0,0,0-1.34-.34,6.65,6.65,0,0,0-.86.08h-.07v.1a3.66,3.66,0,0,1,.06.67v.57a2.13,2.13,0,0,0,.34,1.4.93.93,0,0,1-.23,0c-.43,0-.56-.19-.56-1.43,0-.25,0-.49,0-.64v-.24l-.06,0a3.41,3.41,0,0,0-1.34,2,.89.89,0,0,1-.4-.62c0-.35.53-.89,1.16-1.51l.4-.4-.12,0a2.76,2.76,0,0,0-.59-.1,1.77,1.77,0,0,0-1.4.43,1.44,1.44,0,0,1-.18-.66.37.37,0,0,1,.07-.26.34.34,0,0,1,.24-.06h0a13.76,13.76,0,0,1,2,.2h0l0,0a18.13,18.13,0,0,0,1.9-3.06.82.82,0,0,1,.32-.06c.28,0,.36.2.45.5a9.63,9.63,0,0,0-1.69,2.56M13,20.26a4.22,4.22,0,0,1,1.43-2.93l.27.06a3.77,3.77,0,0,0-1.1,2.36c0,2.13,2.28,4,4.85,4,0,.19,0,.38,0,.58a8.18,8.18,0,0,0,.05.88c-2.92,0-5.48-2.38-5.48-4.93m19.55,4.48c1.3,2.07,2.33,2,3.87,2a10.92,10.92,0,0,1-2.52-2.88l-2.39-3.82A5.78,5.78,0,0,0,29.72,17a2.84,2.84,0,0,0,.72-.35c-1.56,0-3.11-.79-4-.79a.8.8,0,0,0-.9.76c0,.48.53,1,1.45,1a4.8,4.8,0,0,0,.76-.08,3.63,3.63,0,0,1,.9,2.21c0,1.67-2,3-4,3l-.34,0a4.53,4.53,0,0,1-.79-1.9c0-1.33.87-2.42.87-3.73a2.43,2.43,0,0,0-.56-1.54,2.37,2.37,0,0,0,.59-.71,1.33,1.33,0,0,1-.57.08c-1,0-1.76-.26-2.53-.26-.43,0-.55.14-.55.27a.22.22,0,0,0,0,.12,2.19,2.19,0,0,0-.5-.14,3.41,3.41,0,0,0-.73-.07c-.94,0-1.27.39-1.27.73a2.83,2.83,0,0,0,.48,1.2,2.69,2.69,0,0,1,1-.31,1.47,1.47,0,0,1,1.17,1,4.52,4.52,0,0,1-.74.06,5.4,5.4,0,0,1-1.65-.33s0,0,0,0,.26.46.77.65a9.59,9.59,0,0,0,1.84.37.8.8,0,0,1-.36.41.24.24,0,0,1-.12,0,8.24,8.24,0,0,1-1.78-.54s-.05,0-.05,0c0,.35.91,1.12,1.73,1.42a9.16,9.16,0,0,0-1.93,3.11l-.34,0c-2,0-4-1.31-4-3a3.63,3.63,0,0,1,.9-2.21,4.68,4.68,0,0,0,.76.08c.91,0,1.41-.49,1.45-1a.8.8,0,0,0-.9-.76c-.85,0-2.4.79-4,.79a2.68,2.68,0,0,0,.72.35,5.65,5.65,0,0,0-1.76,3.11L9.09,23.9a11,11,0,0,1-2.53,2.88c1.55,0,2.57,0,3.88-2l1.23-1.95a5.4,5.4,0,0,0,.33.74l-2.44,3.9A10.81,10.81,0,0,1,7,30.3c1.55,0,2.57,0,3.88-2L13,24.92c.15.16.32.33.49.48l-3,4.74A10.76,10.76,0,0,1,8,33c1.54,0,2.57,0,3.87-2l2.89-4.62c.19.12.38.24.58.35l-3.52,5.63a10.81,10.81,0,0,1-2.53,2.88c1.55,0,2.57,0,3.88-2l3.63-5.81c.21.09.43.17.65.24l-4.1,6.55a11.12,11.12,0,0,1-2.52,2.88c1.54,0,2.57,0,3.87-2l4.37-7,.13,0a3.59,3.59,0,0,1,.2,1.08c0,2.2-1.44,4.14-3.17,5.64a1.65,1.65,0,0,0,.48.06,4.2,4.2,0,0,0,.75,0,18.3,18.3,0,0,1-1.69,2.7,13,13,0,0,0-1.93-.18c-.56,0-.63.33-.63.62a1.49,1.49,0,0,0,.52,1.15c.1-.26.32-.61,1.36-.61h.1c-.3.34-1.26,1.11-1.26,1.73a1.14,1.14,0,0,0,1.05,1,1.07,1.07,0,0,1,0-.34,2.65,2.65,0,0,1,.82-1.51,2.25,2.25,0,0,0,0,.26c0,1.18.1,1.73.86,1.73a1.21,1.21,0,0,0,.71-.26,1.63,1.63,0,0,1-.51-1.48v-.57a4,4,0,0,0,0-.5,3.14,3.14,0,0,1,.58,0s1.07-.09,1.33.47c.3-.27.72-.64.72-1.06s-.13-.58-.69-.58c-.2,0-.86.13-1.41.13a13.37,13.37,0,0,1,1.37-2,1.61,1.61,0,0,0,.52.8,5.78,5.78,0,0,1,1-2.7,13.37,13.37,0,0,1,.19,2.35c0,3-.71,5.14-2.22,5.55a1.29,1.29,0,0,0,1.05.65c.55,0,.85-.62,1.16-1.21.16.43.6,1.5,1,1.5s.88-1.07,1-1.5c.31.59.61,1.21,1.16,1.21a1.26,1.26,0,0,0,1-.65c-1.51-.41-2.22-2.6-2.22-5.55a13.37,13.37,0,0,1,.19-2.35,5.57,5.57,0,0,1,1,2.7,1.54,1.54,0,0,0,.52-.8,13.61,13.61,0,0,1,1.38,2c-.55,0-1.21-.13-1.42-.13-.55,0-.68.31-.68.58s.42.79.71,1.06c.26-.56,1.33-.47,1.33-.47a3.24,3.24,0,0,1,.59,0,4,4,0,0,0,0,.5v.57a1.61,1.61,0,0,1-.52,1.48,1.25,1.25,0,0,0,.72.26c.75,0,.86-.55.86-1.73a2.25,2.25,0,0,0,0-.26A2.71,2.71,0,0,1,28,40.88a1.46,1.46,0,0,1,0,.34,1.13,1.13,0,0,0,1-1c0-.62-.95-1.39-1.26-1.73h.11c1,0,1.25.35,1.36.61a1.49,1.49,0,0,0,.52-1.15c0-.29-.07-.62-.63-.62a13,13,0,0,0-1.93.18,17.5,17.5,0,0,1-1.7-2.7,4.28,4.28,0,0,0,.75,0,1.61,1.61,0,0,0,.48-.06c-1.73-1.5-3.17-3.44-3.17-5.64a3.93,3.93,0,0,1,.2-1.08l.14,0,4.36,7c1.31,2.06,2.33,2,3.88,2a11.2,11.2,0,0,1-2.53-2.88l-4.1-6.55a6.42,6.42,0,0,0,.66-.24l3.62,5.81c1.31,2.06,2.34,2,3.88,2a11.2,11.2,0,0,1-2.53-2.88l-3.52-5.63.59-.35L31.06,31c1.31,2.07,2.33,2,3.88,2a10.84,10.84,0,0,1-2.53-2.87l-3-4.74c.18-.15.34-.32.5-.48l2.1,3.35c1.3,2.07,2.33,2,3.87,2a11.19,11.19,0,0,1-2.53-2.87L31,23.53a5.4,5.4,0,0,0,.33-.74Z"></path>
    <path d="M48.62,41.36H44.15V15.81h4.47Z"></path>
    <path class="cls-1" d="M48.62,66.91H44.15V41.36h4.47Z"></path>
    <path class="cls-2" d="M48.62,92.45H44.15V66.91h4.47Z"></path>
  </g>
</svg>
